<?xml version="1.0" encoding="UTF-8" standalone="no"?>
<!DOCTYPE svg PUBLIC "-//W3C//DTD SVG 1.1//EN" "http://www.w3.org/Graphics/SVG/1.1/DTD/svg11.dtd">
<svg xmlns="http://www.w3.org/2000/svg" version="1.1" viewBox="0 0 224 200">
<path fill="#000000" d="
  M 179.95 102.15
  A 0.52 0.51 -15.2 0 0 179.17 101.71
  L 112.92 139.90
  A 1.80 1.77 -44.9 0 1 111.15 139.91
  L 28.17 92.26
  A 1.34 1.32 -75.4 0 1 27.50 91.10
  Q 27.50 74.63 27.48 59.25
  Q 27.48 55.92 29.01 53.23
  Q 30.17 51.19 33.41 49.28
  Q 86.65 17.81 106.75 6.75
  Q 109.95 4.99 113.94 5.70
  Q 116.35 6.13 120.36 8.45
  Q 124.56 10.88 128.76 13.31
  Q 129.18 13.56 128.75 13.81
  L 61.67 52.28
  Q 61.23 52.53 61.67 52.79
  L 77.46 61.83
  A 1.58 1.54 44.4 0 0 79.02 61.83
  L 145.27 23.55
  A 0.89 0.87 -44.4 0 1 146.16 23.55
  Q 167.51 35.76 188.79 48.02
  Q 192.04 49.89 192.19 50.00
  Q 193.75 51.17 194.81 53.03
  A 0.68 0.68 -35.3 0 1 194.56 53.96
  L 112.94 100.97
  A 1.81 1.78 -44.9 0 1 111.15 100.98
  L 95.92 92.11
  A 0.54 0.53 -44.7 0 1 95.93 91.19
  L 162.72 52.83
  Q 163.17 52.57 162.72 52.32
  L 146.89 43.19
  A 1.72 1.69 44.9 0 0 145.18 43.18
  L 79.05 81.30
  A 1.62 1.62 41.8 0 1 77.41 81.30
  L 44.62 62.44
  Q 44.18 62.18 44.18 62.69
  L 44.25 81.09
  A 1.18 1.14 -75.5 0 0 44.82 82.10
  L 111.47 120.67
  A 1.17 1.16 44.6 0 0 112.64 120.67
  L 196.06 72.42
  Q 196.50 72.17 196.50 72.68
  Q 196.50 98.75 196.46 124.25
  Q 196.45 129.24 192.94 132.69
  Q 191.80 133.81 185.73 137.27
  Q 154.83 154.90 123.94 172.56
  Q 116.58 176.77 115.01 177.18
  Q 111.31 178.17 107.62 176.74
  Q 106.85 176.44 101.32 173.28
  Q 69.07 154.88 36.93 136.28
  Q 36.85 136.23 34.38 134.97
  Q 31.29 133.38 29.45 130.61
  Q 28.00 128.41 27.71 124.56
  Q 27.24 118.42 27.53 111.84
  A 0.28 0.28 16.2 0 1 27.95 111.61
  L 111.19 159.49
  A 1.64 1.62 -44.7 0 0 112.82 159.49
  L 179.50 120.94
  A 0.90 0.86 -15.6 0 0 179.95 120.18
  L 179.95 102.15
  Z"
/>
</svg>
